<?xml version="1.0" encoding="UTF-8"?>
<svg id="Layer_1" data-name="Layer 1" xmlns="http://www.w3.org/2000/svg" xmlns:xlink="http://www.w3.org/1999/xlink" viewBox="0 0 358 358">
  <defs>
    <style>
      .cls-1 {
        fill: none;
      }

      .cls-2 {
        font-family: Poppins-Medium, Poppins;
        font-size: 46px;
        font-weight: 500;
      }

      .cls-3 {
        clip-path: url(#clippath);
      }

      .cls-4 {
        fill: #f1f1da;
      }
    </style>
    <clipPath id="clippath">
      <rect class="cls-1" x="69.07" y="109.74" width="219.86" height="146.53"/>
    </clipPath>
  </defs>
  <rect class="cls-4" width="358" height="358"/>
  <g class="cls-3">
    <path d="m70.11,129.89s.2-1.1.22-1.34c.05-.6.43-5.84.52-6.47.09-.65.28-1.17.37-1.64.13-.59.19-.47.81-1.6.57-1.03,1.47-1.97,3.99-2.15,2.24-.17,9.25-.6,11.78-.65,4.01-.07,12.25.35,13.63,1.11.61.33,2.33,3.87,2.7,5.06.37,1.19,1.46,5.58.86,5.53-7.53-.75-12.05-.24-12.86-.19-.28.02-.28.27-.28.27,0,0,.12,6.02-.32,7.14-.44,1.11.07,6.54.07,7.66s1.05,4.65-1.56,4.8c-2.6.15-4.01,0-4.24-.07-.22-.08-1.31-.09-1.16-2.47.15-2.38-.4-12.81-.4-12.81,0,0-.38-4.02-.82-4.24-.44-.22-5.35.44-7.37,1.48-2.01,1.04-3.92,2.67-3.82,3.71.08.83,2.95,3.29,5.76,2.91,2.79-.38,3.24-1.13,4.2-.78.62.22.58.29.73,1.33.23,1.62-.24,6.29-.08,7.61.17,1.52,1.17,4.52.58,5.11-.6.6-2.46.63-4.92,1.4-2.51.79-4.87,1.8-5.46,1.27-.77-.69-.57-1.56-1.61-5.06-1.04-3.49-2.35-8.03-1.76-13.85.2-2,.44-3.05.44-3.05"/>
    <path d="m74.66,131.42s.05-.86,3.47-1.36c1.95-.29,4.64-.85,4.93-.41.3.45.03,3.16-1.01,3.68-1.04.52-3.29.92-4.93.85-1.64-.07-2.71-.71-2.46-2.76"/>
    <path d="m94.29,128.74c1.2-.35,4.15-.06,4.86-.03,3.63.16,3.54.65,3.54.65,0,0,.87.27-3.13,2.41-.96.51-2.77,1-4.14.35-1.37-.64-2.17-3.08-1.13-3.38"/>
    <path d="m103.88,130.19c-.75.86-1.76,2.16-3.03,2.61-1.27.45-2.32.74-4.17.74s-2-.54-2.74-.47c-.74.07.02,3.4.02,9.03s1.73,8.2,2.1,8.65c.37.45.24.91-.02.69-.65-.55-4.14-1.68-7.5-1.6-4.78.12-13.89,3.57-13.89,3.57,0,0-.63.41,1.23,2.46,1.9,2.1,9.31,3.94,12.14,3.94s5.72-.56,10.1-3.58c4.34-2.99,5.91-9.3,6.13-10.71.22-1.41.89-14.06.89-15.02s-.54-1.12-1.27-.3m-10.08,22.86c-.03.12-1.5.39-4.72.54-3.13.15-4.24-.51-4.24-.51,0,0-.35-.04-.25-.25.1-.22,1.99-.84,3.01-.94,2-.18,3.19-.11,4.81.35.9.26,1.44.58,1.39.79"/>
    <path d="m94.71,161.98s-.65-1.21.99-2.25c.84-.53,2.82-1.56,4.29-1.77,1.47-.22,4.89-.3,6.49.48l1.6.78s5.24,2.64,6.23,6.28c1,3.63.87,8.01.52,9.39-.43,1.73-1.34,4.03-2.82,4.93-1.47.91-.99,2.55-.99,2.68s.13,3.38,1.25,6.11c1.12,2.72,4.12,9.24,4.59,10.17,1.51,3.01,1.98,5.51,2.24,6.29.26.78.87,2.41.7,3.32-.17.91-3.07,9.31-3.25,10.56-.17,1.25-.67,3.6-.67,3.77s-.16.69-.67.35c-.8-.54-11.52-11.91-14.02-20.26-2.51-8.35-6.32-20.69-6.36-26.58-.05-5.89-.44-7.84,1.12-8.19,1.56-.35,3.33.05,4.33.52,1,.48,3.2,2.47,3.42,1.69.21-.74.04-2.71-.61-4.25-.33-.78-2.96-3.94-8.39-4.02"/>
    <path d="m131.15,191.31s-.52,9.8-.26,11.44.13,3.99.06,4.46c-.1.67-.71,1.68-1.93,1.24-.97-.35-5.62-7.6-7.74-12.53-2.12-4.93-2.62-5.89-3.14-6.72-.52-.82-.48-3.67-.52-4.54-.05-.87.39-11.98.35-13.71-.04-1.74-.74-7.16-1.74-8.84-1-1.69-3.05-3.82-5.44-6.21-2.28-2.28-5.9-3.38-6.48-3.58-.36-.12-.47-.53.32-1.63.72-1,1.26-2.06,1.53-6.03.25-3.65.88-12.6.88-12.6,0,0,.33-4.67-.06-6.46-.3-1.36-1.28-2.94-1.38-3.39-.13-.56-.05-1.35.65-1.47,1.54-.26,5.66-1.41,15.03-.97,9.57.45,14.33,2.53,17.57,3.44,3.25.91,7.78,3.1,8.98,3.67.81.39,2.67,1.29,3.13,1.6.36.24,7.18,4.05,12.5,10.97,3.2,4.16,3.17,6.53,4.64,8.43,1.47,1.91,9.13,10.96,9.57,11.52.43.56,3.33,4.55,8.22,5.85,4.89,1.3,7.12,1.51,9.93,1.29,2.74-.22,3.89-.07,4.03.15.22.37,1.46,8.22,1.89,9.99.43,1.77,4.58,13.38,5.49,15.11.91,1.74,4.77,10.39,9.36,14.54,4.58,4.16,8.53,6.93,11.17,8.27,2.64,1.34,2.94,1.87,6.77,2.96,2.09.6,7.69,1.46,8.65,1.42.96-.04,1.41.12,1.17.77-.29.79.06,1.62-2.71,3.35-2.77,1.73-11.97,7.14-13.88,8.4-2.55,1.68-6.44,5.39-8.05,6.78-1.43,1.23-1.96,2-2.74,2.22-.78.21-2.06-.24-4.23-1.45-2.16-1.21-3.04-2.05-3.16-2.21-.28-.36,0-1.31.99-2.09,1-.78,6.69-6.28,10.57-8.96,4.05-2.78,8.65-4.23,9.3-4.4.65-.17,1.64-.35,1.25-.52-.39-.17-6.37-2.85-8.1-4.03-1.73-1.17-5.3-4.33-7.77-5.71s-4.44-3.67-7.61-3.57c-5.37.18-19.93,4.08-20.76,4.26-2.12.48-11.09,2.52-18.35,4.7-6.23,1.86-16.13,2.74-16.62,1.96-.56-.91-.22-1.9.43-2.37s2.82-2.03,5.84-5.41c3.03-3.38,7.01-10.09,8.48-14.37,1.47-4.28,1.91-8.81.52-13.42-1.57-5.19-8.79-10.07-15.57-10.03-7.23.05-12.54.88-15.33,4.09-1.99,2.31-3.56,3.36-5.7,14.32"/>
    <path d="m132.87,191.96s1.05-5.06,1.4-6.24c.48-1.6,2.69-6.3,4.89-7.63,2.2-1.33,5.94-4.4,13.57-3.66,7.63.73,10.83,5.01,11.65,6.47.82,1.46,4.01,6.03,1.32,12.89-2.7,6.85-4.54,9.8-6.09,11.53-1.55,1.74-2.54,3.78-5.42,6.42-2.87,2.65-2.1,2.11-2.51,2.38-.41.27-5.21,3.1-8.78,6.99-3.56,3.88-12.56,14.11-13.88,15.58-1.32,1.46-1.62,2.86-3.13,3.09-1.51.23-2.77-.11-2.63.2.14.32.55.92,2.42,2.1,1.87,1.19,1.78,1.69,2.05,2.65.28.96.16,1.99-.8,2.31-.96.32-6.38,1.74-10.27,1.69-3.88-.04-5.79-.39-5.74-2.36.05-1.97.35-7.89-.18-7.81-.7.1-2.51,3.21-3.29,4.75-.57,1.13-1.01,3.42-.58,4.16.46.78.51,1.24.26,1.53-.58.65-2.11,2.17-3.25,1.35-1.14-.82-3.85-3-2.97-7.53.09-.47.7-2.44,1.29-2.85.6-.41,1.94-1.74,1.26-1.81-1.46-.15-3.09,1.42-3.62,2.81-.83,2.19-.21,8.33.06,8.92.28.59.05,1.44-.73,2.11-.54.46-1.55.85-2.92.43-1.37-.41-3.84-2.68-3.48-6.79.37-4.11,2.47-8.59,4.93-10s4.79-2.28,10.05-2.28,7.42.31,8.15-.28c.79-.64,4.46-5.46,7.42-8.54,2.93-3.04,6.26-6.53,7.13-7.31.87-.77,2.63-3.21,2.59-5.82-.05-2.6-.45-3.06-.63-10.96-.18-7.91.25-7.78.43-8.49"/>
    <path d="m202.04,170.7s-1.03-4.23,1.11-4.85c2.14-.61,3.23-.15,3.65.52.42.67,2.2,8.31,2.62,10.14s5.04,14.03,8.25,18.38c3.35,4.54,7.4,9.71,13.66,13.42,5.13,3.05,8.22,4.67,10.36,4.92,2.14.25,3.4.6,3.52,1.52.13.92-.3,2.51-1.52,2.7-1.22.18-2.34-.28-3.61-.39-.85-.07-13.4-2.44-22.32-12.36-9.18-10.21-10.12-15.97-11.33-20.56-.46-1.76-.77-2.49-1.34-3.91-.16-.4-2.93-9.21-3.06-9.53"/>
    <path d="m208.49,166.96c-.22-.95.02-2.07,1.02-2.51,1.83-.82,3.49-1.8,4.55-2.24,1.06-.45,13.86-6.71,16.09-7.27,2.24-.56,13.3-1.75,21.63,1.01,9.11,3.02,10.25,4.48,13.62,7.08,4.26,3.28,9.33,7.81,11.45,11.55,1.79,3.16,3.61,7.29,4.83,11.66.81,2.92,1.44,8.21,1.55,10.66.11,2.31.22,7.15-.61,7.83-.84.67-1.44,1.05-2.23,1.05s-.93-.36-.98-2.99c-.05-2.24-.88-9.18-4.85-17.06-3.96-7.88-5.93-11.53-9.84-15.61-3.12-3.25-7.14-6.74-8.89-6.53-.98.11-.44.22-.44.22,0,0,5.08,3.75,8.39,7.67,2.49,2.94,6.51,9.6,6.51,9.6l1.35,2.7c.62,1.47,2.93,6.29,4,9.35,2.26,6.41,2.4,11.47,2.1,13.89-.05.39,3.91.33,4.91.39,1.01.05,1.79.78,2.07,1.34s1.85,4.75,2.51,8.94c1.68,10.62.5,21.12-.33,25.48-.84,4.36-1.9,5.7-2.51,6.76-.62,1.06-.62,2.01-3.24,3.46-5.9,3.27-8.71,3.69-8.71,3.69,0,0-3.9.85-3.86-.89.02-.68.51-2.37,2.63-4.77,2.12-2.4,1.73-1.99,2.51-4.45.65-2.04,1.62-4.53,1.06-12.24-.56-7.71-2.63-15.59-2.8-16.2-.17-.62-1.79-.73-3.24-.39-1.45.33-16.15,2.79-17.49,2.79s-4.75-.95-4.75-3.91.09-4.27-.39-4.3c-1.79-.11-10.79-4.11-16.93-8.38-7.15-4.98-13.22-13.98-16.06-21.36-2.51-6.54-2.08-5.09-4.65-16.01"/>
    <path d="m133.27,114.37s.27-4.63,5.59-4.59c5.32.04,7.23,1.87,8.19,2.33.96.46,2.83,2.55,10.6,5.15,8.31,2.78,9.51,1.98,11.39,1.94,1.88-.04,3.44.01,5.28.17,1.83.15,5.1.5,9.65,3.9,4.55,3.41,6.54,5.62,7.19,7.54.65,1.91,1.3,4.63,1.34,4.98.04.34.14,1.3-1.19,1.41-1.26.12-3.94-1.79-6.35-1.37-2.41.42-4.86,1.22-6.58,2.75-1.72,1.53-5.05,4.82-5.55,5.13-.5.3-2.52.27-3.41-.96-.88-1.22-2.14-3.29-2.6-3.56-.46-.27-1.45-1.88.65-3.4,2.11-1.53,6.16-4.78,8.95-5.32,2.79-.53,4.7-.92,5.81-.65,1.11.27,2.7.4,2.49-.15-.11-.31-2.52-.73-3.52-.88-2.62-.4-4.21-.73-6.65.04-2.21.68-6.7,2.26-7.73,3.71-1.04,1.45-1.32,1.83-3.14,2.1-3.33.5-5.67-3.17-5.85-4.63-.19-1.46.02-3.46,2.25-4.63,1.53-.8,3.21,0,3.87.5.65.5.06,1.69.59,1.86.32.1.4-.03,1.78-1.13,1.12-.9.73-1.42,3.78-2.03,5.78-1.14,6.2-.07,6.2-.35s-.96-1.8-6.7-1.95c-2.8-.07-9.56,1.21-13.24,3.1-3.06,1.57-3.63.78-4.06.46-.66-.51-4.52-2.89-6.16-3.71-1.99-.99-4.71-4.59-5.13-4.4-.42.19-.27,2.06-3.41,1.57-3.14-.5-4.63-2.03-4.36-4.93"/>
    <path d="m188.12,118.65s1.42-3.41,4.5-3.26c.74.04,3.06,1.36,2.37,3.54-.68,2.18-2.03,3.6-2.3,4.98-.27,1.37-.33,1.82-.98,2.48-.65.65-.88,1.03-1.87.15-1-.88-2.35-2.84-2.27-5.21.05-1.61.55-2.68.55-2.68"/>
    <path d="m192.58,130.48s.18-6.36,4.8-10.26c3.88-3.26,6.31-3.18,8.57-1.54,1.92,1.39,1.67,3.41,1.21,4.61-.58,1.52-1.59,2.32-3.16,3.31-1.32.84-2.67,1.34-4.28,1.9-1.34.46-2.33-.02-3.68,3.09-1.35,3.1-1.54,3.26-1.89,3.49-.34.23-1-.09-1.24-1.52-.26-1.56-.34-3.07-.34-3.07"/>
    <path d="m196.59,160.35s2.85-.02,5.65-1.05c2.79-1.03,4.7-2.01,5.74-2.12,1.04-.11,3.02.92,2.75,3.59-.27,2.68-1.77,2.6-4.37,3.36-2.6.77-6.4,1.14-7.78,1.04-1.9-.13-3.29-1.91-3.44-3.4-.15-1.5,1.03-1.38,1.26-1.42.23-.04.19,0,.19,0"/>
    <path d="m186.95,159.51c-1.25.12-1.53,1.01-1.27,2.04.27,1.03,1.74,1.99,3.84,1.57,2.11-.42,3.89-.77,4.73-2.89.93-2.35,0-4.12-.45-4.85-.46-.73-.68-.71-1.21-.15-.62.65-1.55,2.59-2.97,3.59-1.42.99-2.4.65-2.68.67"/>
    <path d="m176.6,143.94s1.42-3.49,5.44-4.75c4.02-1.26,5.73-.74,7.66-.51,2.94.36,7.41,3.62,7.89,4.96.27.76.1,1.9-.61,2.73-.71.84-1.85,1.65-3.74,1.24-.97-.2-1.04-.73-1.89-1.94-.86-1.21-2.68-2.53-4.07-2.05-1.39.48-3.99,2.5-4.05,4.45-.05,1.75.53,4.05,1.14,4.63.61.59.91.08.65-.33-.25-.4-1.19-2.55.23-3.72,1.42-1.16,2.62-1.65,4.42-1.08,2.73.86,3.26,2.68,2.58,5.36-.68,2.68-4.15,5.31-6.02,5.54-1.87.22-8.6-.23-10.06-6.68-1.47-6.45.53-7.84.43-7.84"/>
    <path d="m196.14,134.3s.56-1.77,3.86-3.9c3.3-2.13,6.6-4.18,7.56-5.39.97-1.21,2.56-4.13,1.41-4.62-1.41-.61-2.54-3.62-1.81-5.43.73-1.81,2.17-3.26,4.06-3.22,1.89.04,4.15.52,4.79,1.37.64.84.73,1.85,1.25,1.53.52-.32,2.13-2.02,3.9-1.65,2.66.56,3.9,2.61,4.42,5.87.53,3.26-.88,4.58-1.89,5.03-2.41,1.06-5.5,1.79-9.97,3.3-4.67,1.57-9.21,3.74-11.75,5.91-2.54,2.17-4.83,5.39-5.11,5.76-.28.36-2.05,1.12-2.25.36-.2-.77-1.09-1.37,1.53-4.91"/>
    <path d="m205.51,144.55s2.82-4.42,6.72-4.79c3.9-.36,7.2,1.13,8.53,2.13,1.33,1.01,2.42,3.44,4.55,5.15,1.45,1.17,6.36.52,7.64.44,1.29-.08,2.66.36,2.25,1.29-.19.43-5.23,4.63-11.58,6.19-6.36,1.57-12.43,1.53-14.44-.48-2.01-2.01-2.25-3.58-1.93-4.51.58-1.67,3.46-4.09,4.51-4.1,2.29-.04,2.49,1.81,3.46,1.09.97-.73,1.01-1.81-.2-2.74-1.21-.93-1.73-1.69-3.74-.84-2.01.85-2.53,2.05-3.33,2.73-.8.68-1.4.5-2.01.08-1.12-.76-.4-1.65-.4-1.65"/>
    <path d="m199.23,139.88s5.27-5.82,8.09-7.47c2.81-1.65,7.96-5.43,12.95-6.07,4.99-.64,9.73.32,13.43,1.65,3.7,1.33,7.88,2.41,12.67,7.24,4.79,4.82,8.09,11.46,8.61,13.39.52,1.93-.24,3.78-1.33,4.03-1.09.24-5.31-2.1-6.07-2.5-.76-.4-.66-.16-.94-3.18-.28-3.02-2.61-9.11-4.98-10.93-2.15-1.64-1.56-.14-1.08.31s3.3,4.03,3.14,6.68c-.16,2.66.28,4.75-.88,5.59-1.17.85-2.21,1.41-2.54.68-.32-.73-1.16-6.99-1.59-8.42-1.19-3.87-5.62-7.57-6.59-8.09-1.79-.97-1.71-.39-1.35.09.37.49,3.5,2.66,4.39,5.8.84,2.96,1.65,5.35,1.49,6.23-.16.89-.93,1.09-1.97,1.29-1.05.2-1.89.08-2.25-1.57-.36-1.65-.73-7.72-4.82-10.5-4.1-2.78-5.84-3.63-7-2.98-.62.35,3.44,1.31,5.05,3.2,1.61,1.89,3.75,2.94,3.51,7.49-.24,4.54-1.41,4-2.01,4.04-.6.04-2.01.48-2.13-2.41-.12-2.9-.08-3.66-2.21-5.03-2.13-1.36-6.36-3.38-9.65-2.25-3.17,1.09-6.31,2.41-9.37,8.77-2.95,6.14-1.48,7.48-1.29,9.05.2,1.57,1.34,3.71-.87,4.47-2.21.76-4.52.79-5-.77-.37-1.2-.94-6.31-1.5-7.16s-.6-1.33.04-1.53c.64-.2,3.12-1.89,3.21-3.37.32-4.91.85-5.78.85-5.78"/>
  </g>
  <text class="cls-2" transform="translate(112.39 334.84) rotate(17.79)"><tspan x="0" y="0">K</tspan></text>
  <text class="cls-2" transform="translate(142.92 343.83) rotate(9.98)"><tspan x="0" y="0">I</tspan></text>
  <text class="cls-2" transform="translate(157.5 346.78) rotate(2.28)"><tspan x="0" y="0">R</tspan></text>
  <text class="cls-2" transform="translate(190.37 347.75) rotate(-8.52)"><tspan x="0" y="0">K</tspan></text>
  <text class="cls-2" transform="translate(222.56 342.39) rotate(-18.57)"><tspan x="0" y="0">E</tspan></text>
  <text class="cls-2" transform="translate(107.21 65.81) rotate(-27.28)"><tspan x="0" y="0">E</tspan></text>
  <text class="cls-2" transform="translate(128 55.18) rotate(-18)"><tspan x="0" y="0">L</tspan></text>
  <text class="cls-2" transform="translate(146.55 48.75) rotate(-7.95)"><tspan x="0" y="0">S</tspan></text>
  <text class="cls-2" transform="translate(173.2 45.04) rotate(3.01)"><tspan x="0" y="0">T</tspan></text>
  <text class="cls-2" transform="translate(198.28 46.36) rotate(13.37)"><tspan x="0" y="0">E</tspan></text>
  <text class="cls-2" transform="translate(220.99 51.21) rotate(25.2)"><tspan x="0" y="0">D</tspan></text>
</svg>